<svg xmlns="http://www.w3.org/2000/svg" width="16" height="17" viewBox="0 0 16 17" fill="none">
<g clip-path="url(#clip0_8140_7238)">
<mask id="mask0_8140_7238" style="mask-type:luminance" maskUnits="userSpaceOnUse" x="0" y="0" width="16" height="17">
<path d="M16 0.5H0V16.5H16V0.5Z" fill="white"/>
</mask>
<g mask="url(#mask0_8140_7238)">
<path d="M10.1786 9.32464C11.6685 9.88864 13.6738 9.78584 14.9506 9.08L16 8.5L14.9506 7.91998C13.6738 7.21419 11.6686 7.11142 10.1786 7.67533L9.06136 8.09825C9.0544 8.07574 9.046 8.05401 9.03776 8.03213L10.1237 7.54257C11.576 6.88783 12.9212 5.39719 13.325 3.99526L13.6569 2.8431L12.5047 3.17494C11.1028 3.57874 9.61216 4.924 8.95736 6.37628L8.48456 7.42514C8.46272 7.41453 8.44088 7.404 8.41832 7.39481L8.82464 6.32132C9.38856 4.83146 9.28576 2.82614 8.58 1.5493L8 0.5L7.41998 1.54934C6.71419 2.82618 6.61142 4.83146 7.17533 6.32136L7.58166 7.39485C7.55907 7.40404 7.53723 7.41457 7.51542 7.42517L7.04257 6.37631C6.38783 4.92404 4.89719 3.57877 3.49526 3.17498L2.3431 2.84314L2.67494 3.9953C3.07874 5.39719 4.424 6.88787 5.87628 7.54261L6.96219 8.03217C6.95398 8.05405 6.94553 8.07578 6.93864 8.09829L5.82132 7.67537C4.33146 7.11142 2.32614 7.21423 1.0493 7.92002L0 8.5L1.04934 9.08C2.32618 9.78584 4.33146 9.88864 5.82136 9.32464L6.99089 8.882C7.00011 8.90216 7.00938 8.9224 7.01976 8.94192L5.87632 9.45744C4.42404 10.1122 3.07878 11.6028 2.67498 13.0047L2.34314 14.1569L3.4953 13.825C4.89719 13.4213 6.38787 12.076 7.04261 10.6238L7.57325 9.44672C7.59286 9.45488 7.61321 9.4616 7.63338 9.46872L7.17537 10.6787C6.61142 12.1686 6.71423 14.1739 7.42002 15.4507L8 16.5001L8.58008 15.4507C9.28584 14.1739 9.38864 12.1686 8.82472 10.6787L8.36664 9.46864C8.3868 9.4616 8.4072 9.45488 8.4268 9.44664L8.95744 10.6237C9.61216 12.076 11.1028 13.4212 12.5047 13.825L13.6569 14.1569L13.325 13.0047C12.9213 11.6028 11.576 10.1122 10.1238 9.45736L8.98024 8.94192C8.99064 8.9224 8.99992 8.90216 9.00912 8.88192L10.1786 9.32464Z" fill="#009ACE"/>
</g>
</g>
<defs>
<clipPath id="clip0_8140_7238">
<rect width="16" height="16" fill="white" transform="translate(0 0.5)"/>
</clipPath>
</defs>
</svg>