<svg xmlns="http://www.w3.org/2000/svg" width="174" height="29" viewBox="0 0 174 29" fill="none">
<g clip-path="url(#clip0_8195_2500)">
<path d="M25.0879 28.4997H18.5077L6.63595 12.2878V28.4997H0V0.5H6.13185L25.0879 26.1757V28.4997Z" fill="#009ACE"/>
<path d="M25.0871 0.5H18.4512V11.6717H25.0871V0.5Z" fill="#FFA620"/>
<path d="M29.2832 28.4997H49.1067V22.5917H29.2832V28.4997ZM29.2832 17.5797H49.1067V11.6717H29.2832V17.5797ZM29.2832 0.5V6.40799H49.1067V0.5H29.2832Z" fill="#009ACE"/>
<path d="M53.3164 28.5L63.5084 14.1356L53.9606 0.5H61.856L67.4843 8.84392L73.0283 0.5H81.008L61.2402 28.5H53.3164Z" fill="#009ACE"/>
<path d="M76.7604 21.6155H68.9668L73.6712 28.5001H81.6514L76.7604 21.6155Z" fill="#FFA620"/>
<path d="M108.141 0.5V6.40799H100.329V28.5H93.6652V6.40799H85.7969V0.5H108.141Z" fill="#009ACE"/>
<path d="M142.725 0.5V28.4997H136.061V12.3718L129.565 28.4997H125.505L119.009 12.3718V28.4997H112.373V0.5H120.717L127.521 17.4117L134.325 0.5H142.725Z" fill="#009ACE"/>
<path d="M173.036 14.4719C173.036 20.0157 169.816 24.8041 165.168 27.0717C163.32 27.9956 161.248 28.4997 159.036 28.4997H147.137V0.5H159.064C161.248 0.5 163.348 1.00382 165.197 1.89981C169.844 4.19591 173.064 8.98376 173.036 14.4719ZM166.596 14.4999C166.596 10.3278 163.208 6.94 159.036 6.94H153.773V22.0597H159.149C163.293 22.0039 166.624 18.6438 166.596 14.4999Z" fill="#009ACE"/>
</g>
<defs>
<clipPath id="clip0_8195_2500">
<rect width="174" height="29" fill="white"/>
</clipPath>
</defs>
</svg>